<?xml version="1.0" encoding="UTF-8"?>
<svg id="Layer_2" data-name="Layer 2" xmlns="http://www.w3.org/2000/svg" viewBox="0 0 518.19 148.36">
  <defs>
    <style>
      .cls-1 {
        fill: #09f;
      }

      .cls-2 {
        fill: #fff;
      }
    </style>
  </defs>
  <g id="Layer_1-2" data-name="Layer 1">
    <g>
      <path d="M161.01,114.63c-4.81,0-8.69-.19-11.66-.58-2.96-.39-5.24-1.09-6.83-2.13-1.59-1.03-2.86-2.45-3.8-4.25-1.2-2.4-2.1-6.7-2.71-12.88-.6-6.18-.9-13.82-.9-22.93,0-5.84.13-11.12.39-15.84.26-4.72.69-8.71,1.29-11.98.6-3.26,1.24-5.71,1.93-7.34.94-1.8,2.21-3.2,3.8-4.19,1.59-.99,3.86-1.72,6.83-2.19,2.96-.47,6.85-.71,11.66-.71,15.2,0,26.98,3.52,35.36,10.56,8.37,7.04,12.51,17.48,12.43,31.3,0,9.45-1.89,17.37-5.67,23.77-3.78,6.4-9.23,11.23-16.36,14.49-7.13,3.26-15.71,4.89-25.76,4.89ZM164.36,87.97c3.95,0,7.34-.58,10.18-1.74s4.98-2.98,6.44-5.47c1.46-2.49,2.19-5.71,2.19-9.66s-.77-6.96-2.32-9.27c-1.55-2.32-3.71-4.01-6.5-5.09-2.79-1.07-6.08-1.61-9.85-1.61-.52,0-.97.06-1.35.19s-.73.43-1.03.9c-.3.47-.52,1.27-.64,2.38-.13,1.12-.24,2.7-.32,4.77-.09,2.06-.13,4.68-.13,7.86,0,3.95.04,7.06.13,9.34.08,2.28.24,3.93.45,4.96.21,1.03.56,1.7,1.03,2,.47.3,1.05.45,1.74.45Z"/>
      <path d="M243.71,114.38c-5.84,0-10.54-.26-14.1-.77-3.56-.52-6.25-1.33-8.05-2.45-1.8-1.11-3.18-2.53-4.12-4.25-.69-1.46-1.31-3.86-1.87-7.21-.56-3.35-.95-7.41-1.16-12.17-.22-4.77-.32-10.02-.32-15.78s.13-11.08.39-15.71c.26-4.64.66-8.59,1.22-11.85.56-3.26,1.18-5.62,1.87-7.08.94-1.8,2.34-3.24,4.19-4.31,1.85-1.07,4.49-1.82,7.92-2.25,3.43-.43,7.94-.64,13.52-.64,7.13,0,12.79.3,17,.9,4.21.6,7.21,1.76,9.02,3.48,1.8,1.72,2.7,4.17,2.7,7.34s-.86,5.75-2.58,7.47-4.55,2.58-8.5,2.58c-1.98,0-3.91-.02-5.8-.06-1.89-.04-3.78-.11-5.67-.19-1.89-.08-3.78-.13-5.67-.13-1.2,0-2.06.22-2.58.64-.52.43-.82,1.29-.9,2.58,0,.95-.02,1.87-.06,2.77-.04.9-.06,1.78-.06,2.64,0,1.12.26,1.87.77,2.25s1.42.58,2.71.58c2.15,0,4.01-.02,5.6-.06,1.59-.04,3.18-.08,4.77-.13,1.59-.04,3.33-.06,5.22-.06,3.78,0,6.44.69,7.99,2.06,1.55,1.37,2.32,3.52,2.32,6.44s-.77,5.07-2.32,6.44c-1.55,1.37-3.99,2.06-7.34,2.06-2.41,0-5.07-.02-7.99-.06-2.92-.04-5.92-.06-9.02-.06-1.72,0-2.58.69-2.58,2.06,0,1.03-.02,2.04-.06,3.03-.04.99-.04,1.89,0,2.7.04.82.08,1.53.13,2.13.04.6.06.99.06,1.16.08.86.34,1.53.77,2,.43.47,1.16.71,2.19.71h20.09c2.4,0,4.4.67,5.99,2,1.59,1.33,2.38,3.54,2.38,6.63,0,1.98-.37,3.74-1.1,5.28-.73,1.55-2.06,2.86-3.99,3.93-1.93,1.07-4.77,1.91-8.5,2.51-3.74.6-8.57.9-14.49.9Z"/>
      <path d="M304.5,114.63c-10.05,0-17.26-3.39-21.64-10.18-4.38-6.78-6.57-16.83-6.57-30.14,0-5.93.15-11.33.45-16.23.3-4.89.75-9.17,1.35-12.82.6-3.65,1.37-6.42,2.32-8.31,1.2-2.32,2.68-4.04,4.44-5.15,1.76-1.12,4.01-1.67,6.76-1.67,3.43,0,6.12,1.12,8.05,3.35,1.93,2.23,2.9,5.97,2.9,11.21,0,5.58-.06,10.74-.19,15.46-.13,4.72-.19,9.49-.19,14.3,0,4.47.58,7.64,1.74,9.53,1.16,1.89,2.94,2.83,5.35,2.83,1.29,0,2.47-.41,3.54-1.22,1.07-.81,1.97-2.08,2.71-3.8.73-1.72,1.09-3.99,1.09-6.83,0-4.98-.04-9.83-.13-14.56-.09-4.72-.13-9.87-.13-15.46,0-3.61.54-6.48,1.61-8.63,1.07-2.15,2.55-3.69,4.44-4.64,1.89-.94,3.99-1.42,6.31-1.42s4.44.47,6.38,1.42c1.93.95,3.46,2.49,4.57,4.64,1.12,2.15,1.67,5.02,1.67,8.63s-.02,7.32-.06,10.63c-.04,3.31-.09,6.53-.13,9.66-.04,3.14-.06,6.38-.06,9.73,0,2.83.34,5.11,1.03,6.83.69,1.72,1.63,2.98,2.83,3.8,1.2.82,2.49,1.22,3.86,1.22,2.15,0,3.82-.94,5.02-2.83,1.2-1.89,1.8-5.07,1.8-9.53,0-4.81-.09-9.57-.26-14.3-.17-4.72-.26-9.87-.26-15.46,0-5.24.99-8.97,2.96-11.21,1.97-2.23,4.81-3.35,8.5-3.35,2.66,0,4.83.56,6.5,1.67,1.67,1.12,3.03,2.71,4.06,4.77,1.03,1.98,1.84,4.79,2.45,8.44.6,3.65,1.05,7.97,1.35,12.95.3,4.98.45,10.43.45,16.36,0,13.31-2.15,23.36-6.44,30.14-4.29,6.78-11.51,10.18-21.64,10.18-5.24,0-9.49-1.07-12.75-3.22-3.26-2.15-6.1-4.81-8.5-7.99-.6-1.03-1.14-1.69-1.61-2-.47-.3-1.01-.45-1.61-.45s-1.14.15-1.61.45c-.47.3-1.05.97-1.74,2-2.23,3.18-4.98,5.84-8.24,7.99-3.26,2.15-7.52,3.22-12.75,3.22Z"/>
      <path d="M414.24,114.63c-4.81,0-8.69-.19-11.66-.58-2.96-.39-5.24-1.09-6.83-2.13-1.59-1.03-2.86-2.45-3.8-4.25-1.2-2.4-2.1-6.7-2.71-12.88-.6-6.18-.9-13.82-.9-22.93,0-5.84.13-11.12.39-15.84.26-4.72.69-8.71,1.29-11.98.6-3.26,1.24-5.71,1.93-7.34.94-1.8,2.21-3.2,3.8-4.19,1.59-.99,3.86-1.72,6.83-2.19,2.96-.47,6.85-.71,11.66-.71,15.2,0,26.98,3.52,35.36,10.56,8.37,7.04,12.51,17.48,12.43,31.3,0,9.45-1.89,17.37-5.67,23.77-3.78,6.4-9.23,11.23-16.36,14.49-7.13,3.26-15.71,4.89-25.76,4.89ZM417.59,87.97c3.95,0,7.34-.58,10.18-1.74s4.98-2.98,6.44-5.47c1.46-2.49,2.19-5.71,2.19-9.66s-.77-6.96-2.32-9.27c-1.55-2.32-3.71-4.01-6.5-5.09-2.79-1.07-6.08-1.61-9.85-1.61-.52,0-.97.06-1.35.19s-.73.43-1.03.9c-.3.47-.52,1.27-.64,2.38-.13,1.12-.24,2.7-.32,4.77-.09,2.06-.13,4.68-.13,7.86,0,3.95.04,7.06.13,9.34.08,2.28.24,3.93.45,4.96.21,1.03.56,1.7,1.03,2,.47.3,1.05.45,1.74.45Z"/>
      <path d="M479.55,114.5c-5.5,0-9.45-1.03-11.85-3.09-2.4-2.06-3.61-4.85-3.61-8.37,0-2.4.49-4.27,1.48-5.6.99-1.33,2.3-2.34,3.93-3.03,1.63-.69,3.3-1.16,5.02-1.42,4.38-.52,7.86-1.37,10.43-2.58,2.58-1.2,3.86-2.88,3.86-5.02,0-1.37-.54-2.6-1.61-3.67-1.08-1.07-2.47-2.13-4.19-3.16-1.72-1.03-3.56-2.19-5.54-3.48-1.98-1.29-3.8-2.81-5.47-4.57-1.67-1.76-3.09-3.91-4.25-6.44-1.16-2.53-1.74-5.6-1.74-9.21,0-4.12.94-7.73,2.83-10.82,1.89-3.09,4.42-5.71,7.6-7.86,3.18-2.15,6.8-3.78,10.88-4.89,4.08-1.12,8.26-1.67,12.56-1.67,5.49,0,9.45.99,11.85,2.96,2.4,1.98,3.61,4.77,3.61,8.37,0,2.23-.43,4.04-1.29,5.41-.86,1.37-1.98,2.4-3.35,3.09-1.37.69-2.83,1.12-4.38,1.29-3.78.34-6.63,1.03-8.57,2.06-1.93,1.03-2.9,2.49-2.9,4.38,0,1.29.56,2.43,1.67,3.41,1.11.99,2.58,1.95,4.38,2.9,1.8.95,3.69,2.02,5.67,3.22,1.97,1.2,3.84,2.68,5.6,4.44,1.76,1.76,3.2,3.91,4.32,6.44,1.12,2.53,1.67,5.65,1.67,9.34,0,4.55-1.08,8.57-3.22,12.04-2.15,3.48-5.07,6.36-8.76,8.63-3.69,2.28-7.84,3.99-12.43,5.15-4.59,1.16-9.34,1.74-14.23,1.74Z"/>
    </g>
    <g>
      <g>
        <path class="cls-1" d="M43.52,76.57c3.97-.09,7.95.17,11.9-.07,7.08-.43,14.06-1.2,20.89-3.61,6.04-2.13,10.58-6.43,16.76-9.58-2.19-1.26-3.74-1.16-5.04-.7-4.23,1.47-8.62,2.16-13.01,2.75-8.83,1.17-17.39,3.98-26.37,4.28-11.41.39-22.8.74-33.67-3.75-1.1-.46-2.18-.55-3.13.55-1.73,2-3.72,3.78-5.31,5.88-1.95,2.56-1.25,4.83,1.67,6.42,1.3.71,2.57,1.55,4.11,1.63,6.11.33,12.3.65,18.12-1.52,4.29-1.6,8.63-2.18,13.09-2.29Z"/>
        <path class="cls-2" d="M124.38,74.04c-1.04-.44-1.64.44-1.66,1.21-.12,3.72-1.46,7.31-1.15,11.06,1.89-3.28,1.54-7.26,3.26-10.6.36-.7.2-1.4-.44-1.67Z"/>
        <path class="cls-2" d="M133.59,74.82c-3.46,1.49-5.13,4.22-5.05,7.8.08,3.37-2.06,5.86-2.9,8.84-.22.78-.9,1.53-1.8,1.43-.85-.09-1.35-.86-1.79-1.59-.89-1.52-.16-3.21-.54-4.78-1.74.33-3.65.95-3.19-2.15.12-.81-.06-1.65-.05-2.48.01-1.36.8-3.26-2.02-2.12-.72.29-1.33-.78-1.22-1.73.14-1.15.33-2.29.49-3.44.49-3.73.34-3.98-2.95-4.97-2.84-.85-5.75-1.51-8.48-2.61-4.1-1.65-7.58-1-10.77,2,1.16,1.29,2.2-.02,3.26.01.89.02,1.7.3,1.95,1.2.27,1.02-.62,1.41-1.33,1.78-2.24,1.2-4.61,1.8-7.17,1.61-1.9-.14-3.75-.03-5.35,1.86,3.1,1.82,6.17,2.53,9.14,3.43,3.01.91,5.56-1.6,8.38-1.65.49.9.48,1.54-.1,2.01-2.21,1.8-4.57,3.18-7.57,3.29-3.44.14-6.82-.55-9.46-2.48-3.58-2.62-7.09-2.3-10.78-1.05-3.15,1.07-6.4,1.67-9.64,2.25-2.56.46-5.94-.42-7.53,1.35-1.62,1.81-.13,5.05-.27,7.67-.02.33-.01.66,0,.99.22,3.39.77,4.01,4.17,4.13,6.41.23,12.3-2.25,18.29-3.96,2.91-.83,3.2-2.65,1.52-5.29-.66-1.03-1.46-1.86-.42-3.03,1.21-1.37,2.38-.61,3.51.14.41.27.77.62,1.16.93,7.01,5.47,12.36,12.31,16.56,20.1,1.13,2.11,1.5,4.36,1.39,6.71-.03.65-.17,1.39-.9,1.62-1,.32-1.82-.45-1.9-1.12-.46-3.81-3.15-6.37-4.97-9.41-2.56-4.27-5.23-8.41-10.07-11-3.01,3.92-7.31,5.67-12.19,6.45-2.1.33-4.13,1.19-6.17,1.87-5.54,1.85-10.62,1.74-14.71-3.62-2.73,5.79-4.81,11.52-5.99,17.79-1.66-1.13-1.55-2.32-1.67-3.45-.69-6.77,2.09-12.65,5.09-18.32,1.75-3.3,1.6-6.1.23-9.18-2.58.48-4.6,1.5-6.54,2.84-2.85,1.97-5.67,4.01-8.97,5.24-.8.3-1.7.61-2.23-.21-.5-.78.02-1.57.58-2.22,1.44-1.66,3.69-2.54,4.97-4.65-3.78-1.58-6.82.51-10,.93-6.98.93-6.96-.1-6.11,8.51.11,1.11.63,2.23,1.16,3.23,3.87,7.29,7.08,14.85,10.4,22.4,3.48,7.91,9.87,13.67,18.09,16.83,7.06,2.72,14.46,4.21,21.9,5.73,9.87,2.02,18.53-1.22,26.65-5.4,6.5-3.35,13-7.09,18.89-11.65,3.51-2.71,4.15-4,2.22-8.13-.93-1.98-1.18-3.77.02-5.62,1.03-1.6,2.5-1.6,3.54,0,.35.54.69,1.19.72,1.81.15,3.25,2.78,3.47,4.95,3.83,3.41.56,5.25-1.9,3.72-5.01-1.02-2.07-.68-3.49.42-5.44,1.77-3.12,4.66-5.11,6.88-7.76,1.69-2.02,2.83-4.16,2.77-6.69-.13-5-1.06-9.88-3.5-14.32-1.52-2.76-3.86-3.36-6.72-2.13ZM78.29,120.53c-4.67,3.17-9.72,4.84-15.44,3.35-3.46-.9-4.63-2.43-4.75-6.86,5.97,5.23,11.81,3.9,17.79,1.18,1.45-.66,2.37-2.36,4.5-2.2.48,2.08-.6,3.51-2.11,4.52ZM81.95,111.07c-3.82-.21-7,1.4-10.19,3.2-5.17,2.91-10.23.85-15.27-.55-.79-.22-1.47-.92-1.47-1.81,0-1.31,1.21-1.47,2.1-1.58,2.76-.35,5.54-.55,7.98-.77,2.22.73,3.89-.05,5.62-.57,3.63-1.1,7.28-2.05,11.15-1.61,1.09.12,2.04.42,2.17,1.54.16,1.39-.76,2.22-2.09,2.15ZM138.02,89.25c-2.29,3.39-4.2,7.04-6.34,10.54-.62,1.01-1.59,1.87-2.87,1.12-.95-.56-1.18-1.81-.65-2.62,2.98-4.49,3.89-9.51,4.33-14.75.19-2.32,1.89-3.47,4.23-2.99,1.8.36,2.81,1.61,2.73,3.41-.36,1.9-.32,3.63-1.44,5.29Z"/>
        <path class="cls-2" d="M119.28,72.78c-.63.61-.88,1.38-.66,2.25.04.15.18.27.28.4.13-.07.3-.1.38-.21.5-.64,1.1-1.28.98-2.17-.09-.61-.55-.69-.98-.27Z"/>
        <path d="M121.56,86.31s-.04.09-.07.13c0,.03.01.06.02.09.02,0,.04,0,.06-.01,0-.07,0-.14-.01-.21Z"/>
        <path d="M139.11,68.27c-3.58-.93-3.51-1.03-3.19-4.99.63-7.66-.2-15.26-2.16-22.61-3.35-12.53-10.43-22.57-20.85-30.51-10.4-7.92-21.51-11.25-34.31-7.61-2.19.62-3.83.3-5.85-1.18-3.96-2.89-12.49-.88-13.92,3.36-.67,1.99-1.3,2.22-2.85,2.21-1.32,0-2.65,0-3.25,0-1.38-.13-2.04-.25-2.7-.24-7.58.21-15.02,1.21-20.65,6.86-4.27,4.28-7.75,9.26-10.31,14.81-3.86,8.38-6.01,17.35-9.1,25.99-1.05,2.95-.51,6.36-1.69,9.09-1.2,2.76-4.55,4.14-6.36,6.78-3.19,4.65-2.33,9.2,2.2,12.35,2.54,1.76,5.44,2.47,8.23,3.27,2.29.66,3.3,1.32,3.18,3.9-.19,4.17,1.23,7.98,2.96,11.83,2.63,5.86,5.88,11.41,8.05,17.53,2.82,7.94,8.24,14.15,15.37,18.82,5.91,3.87,12.65,5.56,19.23,7.69,8.63,2.79,17.37,3.62,26.34,1.72,11.44-2.42,21.19-8.33,30.42-15.05,2.76-2.01,6.01-4.13,7.54-7.6,1.12-2.54,2.76-3.41,5.73-3.45,7.21-.11,10.24-4.52,8.29-11.43-.47-1.67-.2-2.87.97-4.02,1.3-1.27,2.56-2.58,3.84-3.88,3.26-3.29,5.18-7.06,5.22-11.88.05-5.58-.95-10.9-3.47-15.77-1.41-2.72-3.56-5.11-6.9-5.98ZM15.23,55.88c1.99-8.03,5.06-15.68,7.96-23.39,1.58-4.2,3.81-8,6.33-11.74,5.19-7.7,12.81-8.57,20.98-8.27,1.3.05,2.58.49,4.09.8-.57,2.63-3.01,3.14-4.84,4.28-2.69,1.67-3.3,4.59-1.38,8.08,1.15-3.17,3.34-4.88,6.28-5.82.87-.28,1.7-1.07,2.27-1.83,1.77-2.35,4.17-3.77,6.78-4.86,6.85-2.86,13.78-5.39,21.26-6.23,7.83-.88,14.7,1.48,21.14,5.58,13.19,8.39,20.57,20.47,23.28,35.8.99,5.62,1.05,11.12.67,16.72-.1,1.5-.38,2.93-1.25,4.32-5.94-.73-10.57-4.41-15.65-7.05-.91-.47-1.5-1.28-1.41-2.42.29-3.7-1.4-7.14-1.48-10.78-.13-6.6-3.5-11.93-6.74-17.29-1.19-1.97-2.73-3.74-4.14-5.57-.72-.93-1.62-2.02-2.83-.99-1.05.89-.61,2.19.16,3.14,2.51,3.1,4.36,6.61,6.33,10.04,1.83,3.17,3.35,6.46,2.06,10.27-.66,1.95.67,3.91-.07,5.86-.46,1.2-.54,2.65-2.5,2.35-5.21-.78-10.17.82-15.15,1.88-6,1.28-12.05,1.93-18.12,2.69-4.09.51-8.15,1.39-12.19,2.24-2.28.48-4.57.71-6.87.93-2.72.27-4.61-.16-4.36-3.49.08-1.12-.59-1.89-1.57-2.3-1.16-.49-2.27-.7-2.51,1.11-.21,1.58.28,3.78-1.28,4.47-1.73.76-3.94.92-5.85.64-5.55-.8-11.16-1.45-16.44-3.56-4.03-1.61-3.96-1.6-2.97-5.6ZM119.28,75.22c-.08.11-.25.14-.38.21-.1-.13-.24-.25-.28-.4-.21-.87.03-1.64.66-2.25.43-.42.89-.34.98.27.13.88-.48,1.52-.98,2.17ZM12.31,80.37c-1.54-.08-2.81-.92-4.11-1.63-2.92-1.58-3.61-3.86-1.67-6.42,1.59-2.09,3.59-3.88,5.31-5.88.95-1.11,2.03-1.01,3.13-.55,10.87,4.49,22.26,4.14,33.67,3.75,8.98-.31,17.53-3.11,26.37-4.28,4.39-.58,8.78-1.28,13.01-2.75,1.3-.45,2.85-.55,5.04.7-6.17,3.15-10.72,7.45-16.76,9.58-6.82,2.4-13.81,3.17-20.89,3.61-3.95.24-7.94-.03-11.9.07-4.47.11-8.8.69-13.09,2.29-5.82,2.16-12.01,1.84-18.12,1.52ZM141.05,97.97c-2.22,2.65-5.1,4.64-6.88,7.76-1.1,1.94-1.44,3.37-.42,5.44,1.53,3.11-.31,5.57-3.72,5.01-2.17-.36-4.8-.58-4.95-3.83-.03-.62-.37-1.27-.72-1.81-1.04-1.6-2.51-1.59-3.54,0-1.19,1.85-.94,3.64-.02,5.62,1.93,4.14,1.29,5.42-2.22,8.13-5.9,4.56-12.39,8.31-18.89,11.65-8.12,4.18-16.78,7.41-26.65,5.4-7.44-1.52-14.83-3.01-21.9-5.73-8.22-3.16-14.61-8.92-18.09-16.83-3.32-7.55-6.54-15.11-10.4-22.4-.53-1.01-1.05-2.12-1.16-3.23-.85-8.61-.86-7.58,6.11-8.51,3.18-.42,6.22-2.52,10-.93-1.29,2.11-3.53,2.99-4.97,4.65-.56.65-1.08,1.44-.58,2.22.53.83,1.44.51,2.23.21,3.29-1.23,6.12-3.27,8.97-5.24,1.94-1.34,3.96-2.37,6.54-2.84,1.37,3.08,1.52,5.87-.23,9.18-3,5.67-5.78,11.55-5.09,18.32.12,1.13,0,2.32,1.67,3.45,1.18-6.28,3.27-12.01,5.99-17.79,4.09,5.36,9.17,5.46,14.71,3.62,2.04-.68,4.06-1.54,6.17-1.87,4.88-.77,9.17-2.53,12.19-6.45,4.84,2.59,7.51,6.73,10.07,11,1.83,3.04,4.51,5.6,4.97,9.41.08.67.91,1.44,1.9,1.12.74-.24.87-.98.9-1.62.11-2.35-.26-4.61-1.39-6.71-4.2-7.79-9.55-14.63-16.56-20.1-.39-.3-.75-.66-1.16-.93-1.13-.75-2.3-1.51-3.51-.14-1.04,1.17-.23,2,.42,3.03,1.68,2.63,1.39,4.46-1.52,5.29-5.99,1.7-11.88,4.18-18.29,3.96-3.4-.12-3.95-.74-4.17-4.13-.02-.33-.03-.66,0-.99.15-2.61-1.35-5.86.27-7.67,1.59-1.77,4.97-.9,7.53-1.35,3.24-.58,6.49-1.19,9.64-2.25,3.68-1.24,7.19-1.56,10.78,1.05,2.64,1.93,6.02,2.61,9.46,2.48,2.99-.12,5.36-1.5,7.57-3.29.58-.47.59-1.11.1-2.01-2.82.05-5.36,2.56-8.38,1.65-2.97-.9-6.04-1.61-9.14-3.43,1.6-1.89,3.44-2,5.35-1.86,2.56.19,4.93-.41,7.17-1.61.71-.38,1.6-.76,1.33-1.78-.24-.9-1.06-1.17-1.95-1.2-1.06-.03-2.1,1.28-3.26-.01,3.19-3,6.67-3.65,10.77-2,2.74,1.1,5.65,1.76,8.48,2.61,3.29.99,3.45,1.24,2.95,4.97-.15,1.15-.35,2.29-.49,3.44-.12.95.49,2.02,1.22,1.73,2.82-1.15,2.03.76,2.02,2.12,0,.83.17,1.67.05,2.48-.46,3.1,1.44,2.47,3.19,2.15,0-.03-.01-.06-.02-.09.03-.04.05-.09.07-.13-.3-3.75,1.03-7.34,1.15-11.06.03-.77.62-1.65,1.66-1.21.64.27.81.97.44,1.67-1.72,3.33-1.37,7.32-3.26,10.6,0,.07,0,.14.01.21-.02,0-.04,0-.06.01.38,1.57-.35,3.26.54,4.78.43.73.94,1.5,1.79,1.59.9.1,1.58-.66,1.8-1.43.84-2.98,2.98-5.47,2.9-8.84-.09-3.59,1.59-6.31,5.05-7.8,2.87-1.23,5.21-.63,6.72,2.13,2.44,4.44,3.38,9.32,3.5,14.32.06,2.53-1.07,4.67-2.77,6.69Z"/>
        <path d="M81.87,107.38c-3.87-.44-7.52.51-11.15,1.61-1.73.52-3.41,1.3-5.62.57-2.44.23-5.22.42-7.98.77-.89.11-2.09.27-2.1,1.58,0,.89.67,1.58,1.47,1.81,5.04,1.41,10.1,3.46,15.27.55,3.19-1.8,6.37-3.41,10.19-3.2,1.33.07,2.25-.75,2.09-2.15-.13-1.13-1.08-1.42-2.17-1.54Z"/>
        <path d="M136.73,80.56c-2.34-.47-4.04.68-4.23,2.99-.44,5.24-1.35,10.26-4.33,14.75-.54.81-.3,2.06.65,2.62,1.27.75,2.25-.11,2.87-1.12,2.14-3.5,4.04-7.15,6.34-10.54,1.12-1.66,1.08-3.39,1.44-5.29.07-1.8-.93-3.04-2.73-3.41Z"/>
        <path d="M75.89,118.21c-5.98,2.73-11.83,4.05-17.79-1.18.12,4.43,1.3,5.95,4.75,6.86,5.71,1.49,10.76-.18,15.44-3.35,1.5-1.02,2.59-2.44,2.11-4.52-2.14-.16-3.05,1.53-4.5,2.2Z"/>
        <path class="cls-2" d="M129.37,48.26c-2.7-15.33-10.08-27.4-23.28-35.8-6.45-4.1-13.31-6.46-21.14-5.58-7.48.84-14.41,3.37-21.26,6.23-2.61,1.09-5.01,2.51-6.78,4.86-.57.76-1.4,1.55-2.27,1.83-2.94.94-5.13,2.66-6.28,5.82-1.93-3.49-1.32-6.41,1.38-8.08,1.84-1.14,4.27-1.65,4.84-4.28-1.51-.31-2.79-.75-4.09-.8-8.17-.29-15.8.57-20.98,8.27-2.52,3.74-4.75,7.54-6.33,11.74-2.89,7.72-5.97,15.37-7.96,23.39-.99,4.01-1.06,4,2.97,5.6,5.28,2.11,10.89,2.76,16.44,3.56,1.9.27,4.12.11,5.85-.64,1.56-.69,1.07-2.89,1.28-4.47.25-1.81,1.35-1.6,2.51-1.11.97.41,1.65,1.18,1.57,2.3-.25,3.33,1.64,3.76,4.36,3.49,2.31-.23,4.59-.45,6.87-.93,4.04-.86,8.1-1.73,12.19-2.24,6.06-.76,12.12-1.42,18.12-2.69,4.98-1.06,9.94-2.66,15.15-1.88,1.97.3,2.05-1.15,2.5-2.35.74-1.95-.59-3.91.07-5.86,1.29-3.82-.23-7.1-2.06-10.27-1.97-3.43-3.82-6.94-6.33-10.04-.77-.95-1.2-2.25-.16-3.14,1.2-1.03,2.11.07,2.83.99,1.42,1.83,2.95,3.6,4.14,5.57,3.24,5.36,6.6,10.69,6.74,17.29.07,3.64,1.77,7.08,1.48,10.78-.09,1.14.5,1.95,1.41,2.42,5.08,2.64,9.71,6.32,15.65,7.05.86-1.4,1.14-2.82,1.25-4.32.38-5.6.32-11.11-.67-16.72Z"/>
      </g>
      <g>
        <path class="cls-1" d="M35.2,58c-1.66.13-2.93-.18-3.8-.91-.88-.74-1.4-2.16-1.56-4.27-.06-.72-.11-1.5-.16-2.33-.05-.83-.08-1.67-.1-2.52-.02-.85-.04-1.7-.06-2.57-.02-.86-.05-1.67-.1-2.43-.04-.76-.07-1.44-.09-2.04-.02-.61-.04-1.1-.07-1.5-.05-.66-.17-1.07-.34-1.23-.18-.15-.44-.25-.77-.28-.67-.07-1.16-.34-1.47-.8-.31-.46-.49-1.07-.55-1.82-.11-1.42.14-2.63.74-3.63.61-1,1.44-1.79,2.51-2.36,1.06-.57,2.2-.9,3.41-.99,1.36-.1,2.43.12,3.22.66.79.55,1.37,1.38,1.76,2.51.47,1.36.81,2.97,1.01,4.84.2,1.87.4,3.99.58,6.38.2,2.57.32,4.83.36,6.8.05,1.97-.03,3.63-.23,4.98-.25,1.11-.72,1.95-1.4,2.52s-1.65.9-2.88,1Z"/>
        <path class="cls-1" d="M54.41,56.7c-2.38.18-4.56-.28-6.53-1.39-1.97-1.11-3.58-2.76-4.82-4.96-1.25-2.2-1.99-4.83-2.23-7.91-.23-3.02.1-5.66,1.01-7.93.9-2.27,2.24-4.07,4.02-5.41,1.78-1.34,3.86-2.1,6.24-2.28,2.44-.19,4.66.23,6.65,1.26,1.99,1.03,3.62,2.6,4.87,4.7,1.26,2.1,2,4.67,2.23,7.68.24,3.08-.1,5.81-1.01,8.18-.91,2.38-2.27,4.27-4.07,5.66-1.8,1.4-3.93,2.19-6.37,2.38ZM53.76,47.1c.75-.06,1.39-.34,1.92-.85.52-.51.91-1.22,1.16-2.12.25-.9.33-1.92.24-3.07-.09-1.12-.32-2.07-.7-2.86-.38-.79-.87-1.38-1.46-1.78-.59-.39-1.27-.56-2.02-.5-1.15.09-2.01.65-2.6,1.68-.59,1.03-.82,2.39-.69,4.08.09,1.15.32,2.14.68,2.98.37.84.85,1.47,1.44,1.89.59.43,1.27.61,2.02.55Z"/>
        <path class="cls-1" d="M73.77,55.03c-1.15.09-2.07-.13-2.76-.65-.69-.52-1.22-1.33-1.58-2.43-.41-1.33-.72-2.94-.94-4.82-.22-1.88-.43-4.09-.62-6.62-.18-2.38-.31-4.53-.38-6.44-.07-1.91-.02-3.55.14-4.93.16-1.1.55-1.97,1.19-2.6.64-.63,1.53-.98,2.67-1.07,1.15-.09,2.07.13,2.76.65.69.52,1.22,1.3,1.57,2.34.21.8.39,1.72.53,2.76.14,1.04.25,2.13.34,3.28.03.36.1.65.23.87.12.22.3.3.54.25.21-.02.41-.13.61-.34.2-.21.43-.59.69-1.12.32-.6.64-1.23.97-1.87.33-.65.67-1.3,1.01-1.94.34-.65.69-1.27,1.04-1.88.51-1.22,1.11-2.19,1.78-2.91.67-.72,1.64-1.13,2.91-1.23,1.45-.11,2.53.19,3.24.91.71.72,1.1,1.56,1.17,2.53.06.81-.1,1.7-.5,2.66-.4.96-.98,2.03-1.76,3.21-.77,1.18-1.72,2.55-2.85,4.09-.11.19-.21.37-.3.55-.09.17-.13.37-.11.58.02.24.08.43.18.58.1.14.23.29.4.42,1.58,1.64,2.87,3.01,3.87,4.12,1,1.11,1.74,2.08,2.23,2.92.49.84.77,1.7.84,2.58.06.72-.04,1.41-.3,2.07-.25.66-.68,1.2-1.26,1.62-.59.42-1.34.67-2.24.74-1.48.11-2.62-.15-3.43-.81-.81-.65-1.46-1.4-1.95-2.24-.58-.78-1.1-1.47-1.57-2.09-.47-.62-.92-1.23-1.35-1.85-.43-.62-.91-1.29-1.45-2.01-.27-.4-.5-.7-.68-.9-.18-.2-.38-.29-.59-.27-.24.02-.4.14-.47.36-.07.22-.1.52-.07.92.04.57.07,1.25.09,2.04.01.79.03,1.56.04,2.32.01.76,0,1.41-.05,1.96-.18,1.17-.58,2.06-1.18,2.66-.61.61-1.48.96-2.63,1.04Z"/>
      </g>
    </g>
  </g>
</svg>