<?xml version="1.0" encoding="UTF-8"?>
<svg id="Layer_2" data-name="Layer 2" xmlns="http://www.w3.org/2000/svg" viewBox="0 0 211.54 209.95">
  <defs>
    <style>
      .cls-1 {
        fill: #09f;
      }

      .cls-2 {
        fill: #fff;
      }
    </style>
  </defs>
  <g id="Layer_1-2" data-name="Layer 1">
    <g>
      <g>
        <path class="cls-1" d="M61.59,108.36c5.61-.13,11.25.25,16.84-.09,10.02-.61,19.9-1.7,29.56-5.1,8.54-3.01,14.98-9.1,23.71-13.56-3.1-1.78-5.3-1.63-7.14-1-5.99,2.08-12.2,3.06-18.41,3.89-12.5,1.66-24.61,5.63-37.31,6.06-16.15.55-32.27,1.05-47.65-5.31-1.56-.65-3.08-.78-4.44.78-2.44,2.83-5.26,5.35-7.52,8.32-2.75,3.62-1.77,6.84,2.36,9.08,1.84,1,3.64,2.19,5.82,2.31,8.65.46,17.41.92,25.64-2.15,6.07-2.26,12.21-3.08,18.53-3.23Z"/>
        <path class="cls-2" d="M176.02,104.78c-1.47-.63-2.32.62-2.36,1.71-.17,5.26-2.06,10.34-1.63,15.65,2.68-4.64,2.18-10.28,4.61-15,.51-1,.29-1.97-.63-2.36Z"/>
        <path class="cls-2" d="M189.05,105.89c-4.9,2.11-7.26,5.96-7.14,11.04.11,4.77-2.92,8.29-4.11,12.51-.31,1.1-1.27,2.17-2.55,2.03-1.2-.13-1.92-1.22-2.53-2.25-1.26-2.14-.23-4.54-.76-6.76-2.46.46-5.16,1.35-4.51-3.04.17-1.14-.09-2.34-.08-3.51.02-1.92,1.13-4.62-2.86-3-1.02.42-1.89-1.1-1.72-2.45.2-1.63.47-3.24.69-4.86.7-5.28.48-5.63-4.18-7.03-4.01-1.21-8.13-2.14-12.01-3.7-5.8-2.33-10.73-1.42-15.24,2.83,1.64,1.82,3.11-.03,4.61.02,1.26.03,2.41.42,2.75,1.7.39,1.45-.88,1.99-1.88,2.53-3.16,1.7-6.52,2.54-10.14,2.27-2.7-.2-5.31-.04-7.57,2.64,4.39,2.58,8.73,3.59,12.94,4.86,4.27,1.29,7.87-2.26,11.85-2.34.7,1.27.68,2.18-.14,2.85-3.13,2.54-6.47,4.5-10.71,4.66-4.86.19-9.65-.78-13.38-3.51-5.07-3.7-10.04-3.25-15.25-1.49-4.46,1.51-9.06,2.37-13.64,3.19-3.62.65-8.4-.59-10.65,1.92-2.29,2.56-.18,7.15-.39,10.85-.03.47-.02.94.01,1.41.31,4.8,1.09,5.67,5.9,5.84,9.08.32,17.4-3.19,25.88-5.6,4.12-1.17,4.53-3.75,2.15-7.48-.93-1.46-2.06-2.64-.6-4.29,1.72-1.94,3.36-.86,4.97.2.58.38,1.09.88,1.64,1.31,9.92,7.75,17.5,17.42,23.44,28.45,1.61,2.98,2.13,6.17,1.97,9.5-.04.91-.24,1.96-1.28,2.3-1.41.45-2.58-.63-2.69-1.58-.65-5.39-4.45-9.01-7.04-13.32-3.62-6.04-7.4-11.9-14.25-15.56-4.26,5.55-10.34,8.03-17.24,9.12-2.98.47-5.84,1.69-8.73,2.65-7.84,2.61-15.03,2.46-20.81-5.12-3.86,8.19-6.81,16.3-8.48,25.18-2.35-1.6-2.2-3.29-2.36-4.88-.98-9.57,2.96-17.9,7.2-25.92,2.47-4.68,2.26-8.63.32-12.99-3.65.67-6.51,2.12-9.25,4.02-4.03,2.79-8.03,5.68-12.69,7.42-1.13.42-2.41.87-3.16-.3-.71-1.1.03-2.22.83-3.14,2.04-2.35,5.22-3.59,7.04-6.58-5.35-2.24-9.65.72-14.15,1.32-9.87,1.31-9.85-.15-8.65,12.04.15,1.57.89,3.15,1.65,4.57,5.47,10.31,10.02,21.02,14.72,31.7,4.92,11.2,13.97,19.34,25.6,23.82,10,3.85,20.46,5.95,30.99,8.1,13.97,2.85,26.23-1.72,37.72-7.64,9.2-4.74,18.39-10.04,26.74-16.49,4.96-3.84,5.88-5.65,3.14-11.51-1.31-2.8-1.67-5.33.02-7.96,1.46-2.27,3.54-2.27,5.01,0,.49.76.97,1.69,1.02,2.56.21,4.6,3.94,4.91,7,5.41,4.83.8,7.43-2.69,5.27-7.09-1.44-2.93-.97-4.95.6-7.7,2.51-4.41,6.59-7.24,9.73-10.98,2.4-2.86,4.01-5.89,3.92-9.47-.18-7.08-1.5-13.98-4.96-20.27-2.15-3.9-5.46-4.76-9.51-3.01ZM110.79,170.57c-6.61,4.49-13.76,6.86-21.85,4.74-4.89-1.28-6.55-3.43-6.72-9.7,8.44,7.4,16.72,5.53,25.18,1.67,2.05-.94,3.35-3.34,6.37-3.11.68,2.95-.86,4.96-2.98,6.4ZM115.97,157.19c-5.41-.29-9.91,1.98-14.42,4.52-7.31,4.12-14.48,1.21-21.61-.78-1.12-.31-2.08-1.3-2.08-2.56,0-1.85,1.71-2.08,2.97-2.24,3.9-.5,7.84-.77,11.29-1.09,3.13,1.03,5.51-.07,7.95-.81,5.14-1.55,10.3-2.89,15.78-2.27,1.54.17,2.88.59,3.07,2.18.23,1.97-1.08,3.14-2.95,3.04ZM195.32,126.31c-3.25,4.8-5.94,9.96-8.97,14.92-.88,1.44-2.26,2.65-4.06,1.59-1.34-.79-1.67-2.57-.91-3.71,4.22-6.35,5.51-13.45,6.13-20.87.27-3.28,2.68-4.9,5.99-4.24,2.55.51,3.97,2.28,3.87,4.82-.51,2.68-.45,5.14-2.04,7.48Z"/>
        <path class="cls-2" d="M168.8,103c-.89.87-1.24,1.95-.94,3.18.05.21.26.38.39.56.18-.1.43-.15.54-.3.71-.91,1.56-1.82,1.38-3.07-.12-.86-.78-.97-1.39-.38Z"/>
        <path d="M172.03,122.14c-.03.06-.06.12-.1.18.01.04.02.09.03.13.03,0,.06-.01.09-.02,0-.1-.01-.2-.02-.29Z"/>
        <path d="M196.86,96.61c-5.06-1.32-4.97-1.46-4.51-7.07.89-10.84-.28-21.6-3.06-31.99-4.73-17.73-14.75-31.95-29.51-43.18-14.72-11.21-30.44-15.92-48.56-10.78-3.11.88-5.42.42-8.28-1.67-5.6-4.09-17.68-1.25-19.7,4.76-.95,2.82-1.84,3.14-4.03,3.13-1.87-.01-3.75,0-4.6,0-1.95-.18-2.89-.36-3.82-.33-10.72.3-21.26,1.71-29.23,9.7-6.04,6.06-10.97,13.1-14.6,20.96-5.47,11.85-8.5,24.55-12.88,36.78-1.49,4.17-.72,9-2.4,12.87-1.69,3.91-6.44,5.87-9,9.6-4.52,6.58-3.3,13.02,3.11,17.48,3.59,2.5,7.69,3.49,11.65,4.63,3.25.94,4.67,1.86,4.5,5.51-.27,5.91,1.74,11.29,4.19,16.75,3.73,8.29,8.32,16.14,11.4,24.81,3.99,11.23,11.66,20.02,21.75,26.63,8.36,5.48,17.9,7.87,27.21,10.88,12.22,3.94,24.57,5.12,37.27,2.43,16.19-3.43,29.99-11.79,43.04-21.3,3.91-2.85,8.5-5.85,10.67-10.76,1.59-3.6,3.91-4.82,8.1-4.89,10.2-.16,14.49-6.4,11.73-16.18-.67-2.36-.28-4.06,1.38-5.69,1.84-1.8,3.63-3.66,5.44-5.49,4.61-4.66,7.33-9.99,7.39-16.81.07-7.89-1.35-15.42-4.92-22.32-1.99-3.85-5.04-7.23-9.76-8.46ZM21.55,79.07c2.82-11.36,7.17-22.19,11.26-33.11,2.23-5.95,5.39-11.32,8.95-16.61,7.34-10.9,18.13-12.12,29.69-11.71,1.83.07,3.65.7,5.79,1.13-.81,3.72-4.26,4.44-6.86,6.06-3.81,2.37-4.68,6.49-1.95,11.44,1.62-4.48,4.72-6.91,8.89-8.24,1.23-.39,2.41-1.51,3.22-2.59,2.5-3.32,5.89-5.33,9.59-6.88,9.7-4.05,19.5-7.63,30.08-8.82,11.09-1.25,20.8,2.09,29.92,7.9,18.67,11.88,29.12,28.97,32.94,50.66,1.4,7.95,1.49,15.74.95,23.67-.14,2.12-.54,4.14-1.76,6.12-8.41-1.03-14.96-6.23-22.15-9.97-1.29-.67-2.12-1.82-1.99-3.42.42-5.24-1.99-10.1-2.09-15.25-.19-9.34-4.95-16.89-9.53-24.47-1.69-2.79-3.86-5.29-5.86-7.88-1.01-1.31-2.3-2.86-4-1.41-1.48,1.26-.86,3.1.23,4.44,3.55,4.38,6.16,9.35,8.96,14.2,2.59,4.49,4.74,9.14,2.91,14.54-.93,2.76.95,5.53-.09,8.29-.64,1.7-.76,3.75-3.54,3.33-7.37-1.11-14.39,1.16-21.43,2.66-8.48,1.81-17.06,2.74-25.64,3.81-5.79.73-11.53,1.96-17.26,3.18-3.23.69-6.46,1-9.73,1.32-3.85.38-6.52-.22-6.17-4.94.12-1.58-.84-2.67-2.22-3.26-1.65-.7-3.21-.99-3.56,1.56-.3,2.23.4,5.35-1.81,6.32-2.44,1.07-5.58,1.3-8.28.91-7.86-1.13-15.8-2.05-23.27-5.04-5.71-2.28-5.61-2.26-4.2-7.93ZM168.8,106.45c-.12.15-.36.2-.54.3-.14-.19-.34-.36-.39-.56-.3-1.23.05-2.31.94-3.18.61-.59,1.26-.48,1.39.38.18,1.25-.68,2.16-1.38,3.07ZM17.42,113.73c-2.18-.12-3.98-1.31-5.82-2.31-4.13-2.24-5.11-5.46-2.36-9.08,2.25-2.96,5.07-5.49,7.52-8.32,1.35-1.56,2.87-1.43,4.44-.78,15.38,6.36,31.5,5.86,47.65,5.31,12.7-.43,24.81-4.4,37.31-6.06,6.21-.82,12.42-1.8,18.41-3.89,1.84-.64,4.03-.78,7.14,1-8.74,4.46-15.17,10.55-23.71,13.56-9.65,3.4-19.54,4.49-29.56,5.1-5.6.34-11.23-.04-16.84.09-6.32.15-12.46.98-18.53,3.23-8.23,3.06-16.99,2.61-25.64,2.15ZM199.6,138.64c-3.14,3.74-7.22,6.57-9.73,10.98-1.56,2.75-2.04,4.77-.6,7.7,2.17,4.4-.44,7.89-5.27,7.09-3.07-.51-6.79-.82-7-5.41-.04-.87-.52-1.8-1.02-2.56-1.47-2.26-3.55-2.26-5.01,0-1.69,2.62-1.33,5.15-.02,7.96,2.74,5.85,1.82,7.67-3.14,11.51-8.35,6.45-17.53,11.75-26.74,16.49-11.49,5.91-23.75,10.49-37.72,7.64-10.52-2.15-20.99-4.26-30.99-8.1-11.63-4.47-20.67-12.62-25.6-23.82-4.7-10.68-9.25-21.39-14.72-31.7-.75-1.42-1.49-3.01-1.65-4.57-1.2-12.18-1.22-10.72,8.65-12.04,4.51-.6,8.8-3.56,14.15-1.32-1.82,2.99-5,4.23-7.04,6.58-.8.92-1.53,2.04-.83,3.14.75,1.17,2.03.73,3.16.3,4.66-1.74,8.66-4.63,12.69-7.42,2.74-1.9,5.6-3.35,9.25-4.02,1.94,4.36,2.15,8.31-.32,12.99-4.24,8.02-8.18,16.35-7.2,25.92.16,1.6.01,3.28,2.36,4.88,1.67-8.89,4.62-16.99,8.48-25.18,5.79,7.58,12.98,7.73,20.81,5.12,2.89-.96,5.75-2.18,8.73-2.65,6.9-1.1,12.98-3.58,17.24-9.12,6.85,3.67,10.63,9.52,14.25,15.56,2.58,4.31,6.39,7.93,7.04,13.32.11.95,1.28,2.04,2.69,1.58,1.04-.33,1.24-1.38,1.28-2.3.16-3.32-.36-6.52-1.97-9.5-5.94-11.03-13.52-20.7-23.44-28.45-.55-.43-1.06-.93-1.64-1.31-1.6-1.05-3.25-2.13-4.97-.2-1.47,1.65-.33,2.83.6,4.29,2.37,3.72,1.97,6.31-2.15,7.48-8.48,2.41-16.81,5.92-25.88,5.6-4.81-.17-5.59-1.04-5.9-5.84-.03-.47-.04-.94-.01-1.41.21-3.7-1.91-8.29.39-10.85,2.25-2.51,7.03-1.27,10.65-1.92,4.58-.82,9.18-1.68,13.64-3.19,5.21-1.76,10.18-2.21,15.25,1.49,3.73,2.72,8.52,3.7,13.38,3.51,4.24-.17,7.58-2.12,10.71-4.66.82-.67.84-1.58.14-2.85-3.98.07-7.59,3.62-11.85,2.34-4.21-1.27-8.55-2.28-12.94-4.86,2.26-2.67,4.87-2.83,7.57-2.64,3.62.27,6.98-.58,10.14-2.27,1-.54,2.27-1.08,1.88-2.53-.34-1.28-1.49-1.66-2.75-1.7-1.5-.04-2.97,1.81-4.61-.02,4.51-4.25,9.44-5.16,15.24-2.83,3.87,1.56,7.99,2.49,12.01,3.7,4.66,1.4,4.88,1.75,4.18,7.03-.22,1.62-.49,3.24-.69,4.86-.16,1.35.7,2.86,1.72,2.45,3.99-1.62,2.88,1.07,2.86,3-.01,1.17.24,2.37.08,3.51-.65,4.39,2.04,3.5,4.51,3.04-.01-.04-.02-.09-.03-.13.04-.06.06-.12.1-.18-.43-5.31,1.46-10.39,1.63-15.65.04-1.09.88-2.33,2.36-1.71.91.39,1.14,1.37.63,2.36-2.44,4.72-1.93,10.35-4.61,15,0,.1.01.2.02.29-.03,0-.06.01-.09.02.53,2.23-.5,4.62.76,6.76.61,1.04,1.33,2.13,2.53,2.25,1.28.13,2.24-.93,2.55-2.03,1.18-4.22,4.22-7.74,4.11-12.51-.12-5.08,2.25-8.93,7.14-11.04,4.06-1.75,7.37-.89,9.51,3.01,3.46,6.29,4.78,13.19,4.96,20.27.09,3.59-1.52,6.62-3.92,9.47Z"/>
        <path d="M115.86,151.96c-5.47-.62-10.64.72-15.78,2.27-2.45.74-4.82,1.84-7.95.81-3.46.32-7.39.59-11.29,1.09-1.26.16-2.96.38-2.97,2.24,0,1.25.95,2.24,2.08,2.56,7.13,1.99,14.3,4.9,21.61.78,4.51-2.54,9.02-4.82,14.42-4.52,1.88.1,3.18-1.07,2.95-3.04-.18-1.6-1.53-2.01-3.07-2.18Z"/>
        <path d="M193.5,114c-3.31-.67-5.71.96-5.99,4.24-.62,7.41-1.91,14.52-6.13,20.87-.76,1.14-.43,2.92.91,3.71,1.8,1.06,3.18-.16,4.06-1.59,3.03-4.95,5.72-10.12,8.97-14.92,1.59-2.34,1.53-4.8,2.04-7.48.11-2.54-1.32-4.31-3.87-4.82Z"/>
        <path d="M107.4,167.28c-8.46,3.86-16.73,5.74-25.18-1.67.17,6.27,1.83,8.42,6.72,9.7,8.09,2.11,15.23-.26,21.85-4.74,2.12-1.44,3.66-3.45,2.98-6.4-3.02-.23-4.31,2.17-6.37,3.11Z"/>
        <path class="cls-2" d="M183.08,68.3c-3.83-21.69-14.27-38.78-32.94-50.66-9.12-5.8-18.84-9.14-29.92-7.9-10.58,1.19-20.39,4.77-30.08,8.82-3.7,1.54-7.09,3.56-9.59,6.88-.81,1.08-1.99,2.19-3.22,2.59-4.17,1.33-7.27,3.76-8.89,8.24-2.73-4.94-1.86-9.07,1.95-11.44,2.6-1.61,6.04-2.34,6.85-6.06-2.14-.43-3.95-1.07-5.79-1.13-11.57-.41-22.35.81-29.69,11.71-3.56,5.29-6.73,10.66-8.95,16.61-4.09,10.92-8.44,21.75-11.26,33.11-1.41,5.67-1.5,5.65,4.2,7.93,7.47,2.98,15.41,3.91,23.27,5.04,2.7.39,5.84.16,8.28-.91,2.21-.97,1.51-4.09,1.81-6.32.35-2.56,1.91-2.26,3.56-1.56,1.38.58,2.33,1.68,2.22,3.26-.35,4.72,2.32,5.31,6.17,4.94,3.27-.32,6.5-.63,9.73-1.32,5.72-1.22,11.46-2.45,17.26-3.18,8.58-1.07,17.15-2,25.64-3.81,7.04-1.5,14.06-3.77,21.43-2.66,2.78.42,2.9-1.63,3.54-3.33,1.05-2.76-.84-5.54.09-8.29,1.83-5.4-.32-10.04-2.91-14.54-2.79-4.85-5.41-9.82-8.96-14.2-1.09-1.35-1.71-3.18-.23-4.44,1.7-1.45,2.99.1,4,1.41,2.01,2.59,4.18,5.09,5.86,7.88,4.59,7.59,9.35,15.13,9.53,24.47.1,5.15,2.51,10.02,2.09,15.25-.13,1.61.7,2.76,1.99,3.42,7.19,3.74,13.74,8.94,22.15,9.97,1.22-1.98,1.62-3.99,1.76-6.12.54-7.93.45-15.72-.95-23.67Z"/>
      </g>
      <g>
        <path class="cls-1" d="M49.81,82.08c-2.35.18-4.14-.25-5.38-1.29-1.24-1.04-1.98-3.06-2.21-6.05-.08-1.02-.15-2.12-.22-3.3-.07-1.18-.12-2.36-.15-3.57-.03-1.2-.06-2.41-.09-3.63-.03-1.22-.08-2.37-.14-3.44-.06-1.07-.1-2.03-.13-2.89-.02-.86-.06-1.56-.1-2.12-.07-.94-.24-1.52-.49-1.73-.25-.22-.62-.35-1.09-.4-.95-.1-1.65-.47-2.08-1.13-.44-.65-.7-1.51-.78-2.58-.15-2.01.2-3.72,1.05-5.14.86-1.42,2.04-2.53,3.55-3.33,1.51-.8,3.11-1.27,4.82-1.4,1.92-.15,3.44.17,4.55.94,1.11.77,1.94,1.96,2.5,3.55.66,1.93,1.14,4.21,1.43,6.85.29,2.64.56,5.65.82,9.02.28,3.63.45,6.84.52,9.63.06,2.79-.05,5.14-.33,7.05-.35,1.57-1.01,2.76-1.98,3.57s-2.33,1.27-4.08,1.41Z"/>
        <path class="cls-1" d="M76.99,80.24c-3.37.26-6.45-.39-9.24-1.96-2.78-1.57-5.06-3.91-6.82-7.01-1.77-3.11-2.81-6.84-3.15-11.2-.33-4.27.15-8.01,1.42-11.23,1.28-3.21,3.18-5.76,5.69-7.66,2.52-1.89,5.46-2.97,8.84-3.23,3.46-.27,6.6.33,9.42,1.79,2.82,1.46,5.12,3.68,6.89,6.65,1.78,2.98,2.83,6.6,3.16,10.87.34,4.36-.14,8.22-1.43,11.58-1.29,3.36-3.21,6.04-5.76,8.02-2.55,1.98-5.56,3.1-9.02,3.37ZM76.08,66.65c1.07-.08,1.97-.48,2.71-1.21.74-.72,1.29-1.72,1.64-2.99.35-1.27.47-2.72.34-4.34-.12-1.58-.45-2.93-.99-4.05-.54-1.12-1.22-1.96-2.06-2.52-.84-.56-1.79-.8-2.86-.71-1.62.12-2.85.92-3.68,2.38-.83,1.46-1.16,3.39-.97,5.78.13,1.62.45,3.03.97,4.21.52,1.18,1.2,2.08,2.04,2.68.84.6,1.79.86,2.86.78Z"/>
        <path class="cls-1" d="M104.39,77.87c-1.62.12-2.92-.18-3.9-.92-.98-.74-1.72-1.89-2.23-3.44-.58-1.89-1.02-4.16-1.33-6.82-.31-2.66-.61-5.79-.88-9.37-.26-3.37-.44-6.41-.54-9.11-.1-2.7-.03-5.02.2-6.98.22-1.56.78-2.79,1.68-3.67.9-.88,2.16-1.39,3.78-1.52,1.62-.12,2.92.18,3.91.92.98.74,1.72,1.84,2.22,3.31.3,1.14.55,2.44.75,3.91.2,1.47.36,3.01.49,4.63.04.51.15.92.32,1.23.17.31.43.43.77.36.3-.02.59-.18.86-.49.28-.3.6-.83.97-1.59.45-.85.91-1.73,1.37-2.65.47-.92.94-1.83,1.43-2.75.49-.92.98-1.8,1.47-2.66.73-1.73,1.57-3.11,2.52-4.12.95-1.02,2.33-1.6,4.12-1.73,2.05-.16,3.58.27,4.58,1.29,1,1.02,1.56,2.21,1.66,3.58.09,1.15-.15,2.41-.71,3.76-.56,1.35-1.39,2.87-2.49,4.54-1.1,1.67-2.44,3.6-4.03,5.79-.15.27-.29.53-.42.77-.13.25-.19.52-.16.82.03.34.11.62.26.82.14.2.33.4.56.6,2.24,2.32,4.07,4.26,5.48,5.83,1.41,1.57,2.46,2.95,3.15,4.14.69,1.19,1.09,2.41,1.18,3.65.08,1.02-.06,2-.42,2.93-.36.93-.96,1.7-1.79,2.3-.83.6-1.89.95-3.17,1.05-2.09.16-3.71-.22-4.86-1.14-1.14-.92-2.06-1.98-2.76-3.17-.82-1.1-1.56-2.08-2.23-2.95-.67-.87-1.31-1.75-1.91-2.62-.61-.88-1.29-1.82-2.06-2.84-.39-.57-.71-1-.97-1.28-.26-.28-.54-.41-.84-.39-.34.03-.57.19-.67.5-.11.31-.14.74-.09,1.3.06.81.1,1.78.13,2.89.02,1.12.04,2.21.06,3.28.02,1.07,0,2-.08,2.78-.26,1.65-.82,2.91-1.68,3.77-.86.86-2.1,1.35-3.72,1.48Z"/>
      </g>
    </g>
  </g>
</svg>