<?xml version="1.0" encoding="UTF-8"?>
<svg id="Layer_2" data-name="Layer 2" xmlns="http://www.w3.org/2000/svg" viewBox="0 0 14.04 13.48">
  <g id="Layer_1-2" data-name="Layer 1">
    <g>
      <path d="M5.66,13.48h-1.4c-.75,0-1.48-.3-2.01-.83l-1.42-1.42c-.54-.54-.83-1.25-.83-2.01s.3-1.47.83-2.01L7.22.83c.54-.54,1.25-.83,2.01-.83s1.47.3,2.01.83l1.99,1.99c1.08,1.08,1.1,2.86.05,3.97l-5.56,5.82c-.53.56-1.28.88-2.05.88ZM9.22,1.42c-.38,0-.73.15-1,.42h0L1.83,8.22c-.27.27-.42.62-.42,1s.15.74.42,1l1.42,1.42c.26.26.63.42,1,.42h1.4c.39,0,.76-.16,1.02-.44l5.56-5.82c.53-.55.52-1.44-.02-1.98l-1.99-1.99c-.27-.27-.62-.42-1-.42Z"/>
      <rect x="4.97" y="5.43" width="1.42" height="6.52" transform="translate(-4.48 6.56) rotate(-45)"/>
    </g>
  </g>
</svg>