<?xml version="1.0" encoding="UTF-8"?>
<svg id="Layer_2" data-name="Layer 2" xmlns="http://www.w3.org/2000/svg" viewBox="0 0 19.53 19.53">
  <defs>
    <style>
      .cls-1 {
        fill: #fff;
      }
    </style>
  </defs>
  <g id="Layer_1-2" data-name="Layer 1">
    <g>
      <g>
        <path class="cls-1" d="M12.5,2.03L2.68,11.85c-.44.44-.73,1.01-.84,1.63l-.84,5.05,5.05-.84c.62-.1,1.19-.4,1.63-.84l9.82-9.82c1.38-1.38,1.38-3.62,0-5-1.38-1.38-3.62-1.38-5,0Z"/>
        <path d="M1,19.53c-.26,0-.52-.1-.71-.29-.23-.23-.33-.55-.28-.87l.84-5.05c.14-.83.53-1.58,1.12-2.17L11.79,1.33h0c1.77-1.77,4.65-1.77,6.41,0,.86.86,1.33,2,1.33,3.21s-.47,2.35-1.33,3.21l-9.82,9.82c-.59.59-1.34.98-2.17,1.12l-5.05.84c-.05,0-.11.01-.16.01ZM13.21,2.74L3.39,12.56c-.3.3-.49.67-.56,1.09l-.61,3.67,3.67-.61c.41-.07.79-.26,1.09-.56l9.82-9.82c.48-.48.74-1.12.74-1.79s-.26-1.31-.74-1.79c-.96-.96-2.63-.96-3.59,0h0Z"/>
      </g>
      <g>
        <path class="cls-1" d="M14.75,4.78l-2.75,2.75"/>
        <path d="M12,8.53c-.26,0-.51-.1-.71-.29-.39-.39-.39-1.02,0-1.41l2.75-2.75c.39-.39,1.02-.39,1.41,0s.39,1.02,0,1.41l-2.75,2.75c-.2.2-.45.29-.71.29Z"/>
      </g>
    </g>
  </g>
</svg>