<?xml version="1.0" encoding="UTF-8"?>
<svg id="Layer_2" data-name="Layer 2" xmlns="http://www.w3.org/2000/svg" viewBox="0 0 13.85 13.85">
  <g id="Layer_1-2" data-name="Layer 1">
    <g>
      <path d="M.71,13.85c-.19,0-.37-.07-.5-.21-.16-.16-.24-.39-.2-.62l.6-3.58c.1-.59.37-1.12.79-1.54L8.36.94c.61-.61,1.42-.94,2.27-.94s1.67.33,2.27.94c.61.61.94,1.42.94,2.27s-.33,1.67-.94,2.27l-6.96,6.96c-.42.42-.95.69-1.54.79l-3.58.6s-.08,0-.12,0ZM10.64,1.42c-.48,0-.93.19-1.27.53l-6.96,6.96c-.21.21-.35.48-.4.77l-.43,2.6,2.6-.43c.29-.05.56-.19.77-.4l6.96-6.96c.34-.34.53-.79.53-1.27s-.19-.93-.53-1.27-.79-.53-1.27-.53Z"/>
      <path d="M8.51,6.05c-.18,0-.36-.07-.5-.21-.28-.28-.28-.73,0-1l1.95-1.95c.28-.28.73-.28,1,0s.28.73,0,1l-1.95,1.95c-.14.14-.32.21-.5.21Z"/>
    </g>
  </g>
</svg>