<?xml version="1.0" encoding="UTF-8"?>
<svg id="Layer_2" data-name="Layer 2" xmlns="http://www.w3.org/2000/svg" viewBox="0 0 11.58 10.43">
  <g id="Layer_1-2" data-name="Layer 1">
    <path d="M9.44,10.43c-.05,0-.1,0-.16,0-.36-.04-.66-.22-.87-.53-.57-.81.05-1.76.59-2.6.23-.35.65-1.01.6-1.2-.34-.12-1.37.92-1.92,1.47-1.28,1.28-2.74,2.73-4.08,1.96-.48-.28-.63-.67-.67-.94-.16-1.1,1.1-2.43,2.55-3.96.94-1,2.7-2.85,2.3-3.28-.14-.15-.26-.17-.36-.18h-.01c-1.04,0-3.53,2.46-6.42,5.3-.23.22-.59.22-.82,0-.22-.23-.22-.59,0-.82C4.03,1.84,5.96,0,7.41,0c.01,0,.02,0,.03,0,.45,0,.85.19,1.18.54,1.15,1.22-.53,2.99-2.3,4.87-.93.98-2.33,2.46-2.25,3,0,.02,0,.05.1.11.57.33,1.79-.89,2.68-1.78.99-.99,1.85-1.84,2.69-1.84.02,0,.04,0,.06,0,.34.02.65.17.88.46.64.77.02,1.72-.52,2.56-.22.34-.73,1.14-.61,1.31.03.04.04.04.06.04.19.02.65-.18,1.2-.68.24-.21.6-.2.82.04.21.24.19.6-.04.82-.51.46-1.25.98-1.96.98Z"/>
  </g>
</svg>