<?xml version="1.0" encoding="UTF-8"?>
<svg id="Layer_2" data-name="Layer 2" xmlns="http://www.w3.org/2000/svg" viewBox="0 0 13.47 14.54">
  <g id="Layer_1-2" data-name="Layer 1">
    <g>
      <path d="M9.01,14.54h-4.54c-1.48,0-2.73-1.16-2.83-2.64L1.07,3.59c-.03-.39.27-.73.66-.76.37-.02.73.27.76.66l.57,8.3c.05.74.67,1.32,1.41,1.32h4.54c.74,0,1.36-.58,1.41-1.32l.57-8.3c.03-.39.37-.68.76-.66.39.03.69.37.66.76l-.57,8.3c-.1,1.48-1.35,2.64-2.83,2.64Z"/>
      <path d="M5.32,10.99c-.39,0-.71-.32-.71-.71v-3.55c0-.39.32-.71.71-.71s.71.32.71.71v3.55c0,.39-.32.71-.71.71Z"/>
      <path d="M8.16,10.99c-.39,0-.71-.32-.71-.71v-3.55c0-.39.32-.71.71-.71s.71.32.71.71v3.55c0,.39-.32.71-.71.71Z"/>
      <path d="M12.77,3.9H.71c-.39,0-.71-.32-.71-.71s.32-.71.71-.71h12.06c.39,0,.71.32.71.71s-.32.71-.71.71Z"/>
      <path d="M9.52,3.72c-.33,0-.63-.24-.7-.58-.19-1-1.07-1.73-2.09-1.73s-1.9.73-2.09,1.73c-.07.38-.45.63-.83.56-.38-.07-.64-.44-.56-.83.32-1.67,1.78-2.88,3.48-2.88s3.17,1.21,3.48,2.88c.07.38-.18.76-.56.83-.05,0-.09.01-.13.01Z"/>
    </g>
  </g>
</svg>